<svg preserveAspectRatio="none" width="100%" height="100%" overflow="visible" style="display: block;" viewBox="0 0 17.8685 12.9708" fill="none" xmlns="http://www.w3.org/2000/svg">
<path id="icon/checkmark" d="M6.11098 10.1398L15.9041 0.346659C16.1352 0.115553 16.4048 0 16.713 0C17.0211 0 17.2907 0.115553 17.5218 0.346659C17.7529 0.577765 17.8685 0.852396 17.8685 1.17055C17.8685 1.48871 17.7529 1.76295 17.5218 1.99329L6.91985 12.6242C6.68874 12.8553 6.41912 12.9708 6.11098 12.9708C5.80284 12.9708 5.53321 12.8553 5.30211 12.6242L0.333326 7.65539C0.10222 7.42428 -0.00871092 7.15004 0.000533321 6.83265C0.00977756 6.51527 0.130338 6.24063 0.362214 6.00876C0.59409 5.77688 0.868722 5.66133 1.18611 5.6621C1.50349 5.66287 1.77774 5.77842 2.00884 6.00876L6.11098 10.1398Z" fill="var(--fill-0, #FBCD99)"/>
</svg>
