<svg preserveAspectRatio="none" width="100%" height="100%" overflow="visible" style="display: block;" viewBox="0 0 240.261 75.5209" fill="none" xmlns="http://www.w3.org/2000/svg">
<g id="logo">
<g id="logo/svg" filter="url(#filter0_n_0_8)">
<path d="M19.9027 75.4567V70.4291H20.3734L23.6039 74.7079H23.5968V70.4291H24.0746V75.4567H23.6039L20.3805 71.1922H20.3877V75.4567H19.9027Z" fill="white"/>
<path d="M28.2505 75.4567L30.4327 70.4291H30.8962L33.0784 75.4567H32.5507L31.9374 74.0162L32.2084 74.166H29.1276L29.3915 74.0162L28.7782 75.4567H28.2505ZM30.6466 71.0424L29.4628 73.8237L29.2917 73.7167H32.0444L31.8589 73.8237L30.6751 71.0424H30.6466Z" fill="white"/>
<path d="M41.8003 75.4567L43.9825 70.4291H44.4461L46.6283 75.4567H46.1005L45.4872 74.0162L45.7582 74.166H42.6775L42.9413 74.0162L42.328 75.4567H41.8003ZM44.1965 71.0424L43.0127 73.8237L42.8415 73.7167H45.5942L45.4088 73.8237L44.225 71.0424H44.1965Z" fill="white"/>
<path d="M50.7979 75.4567V70.4291H52.4881C53.0205 70.4291 53.4722 70.5266 53.843 70.7215C54.2138 70.9164 54.4943 71.2017 54.6845 71.5773C54.8794 71.9481 54.9769 72.4021 54.9769 72.9394C54.9769 73.4766 54.8794 73.933 54.6845 74.3086C54.4896 74.6842 54.2067 74.9694 53.8359 75.1644C53.4698 75.3593 53.0205 75.4567 52.4881 75.4567H50.7979ZM51.2971 75.0075H52.4667C53.118 75.0075 53.6124 74.8387 53.95 74.5011C54.2875 74.1636 54.4563 73.643 54.4563 72.9394C54.4563 72.2357 54.2875 71.7175 53.95 71.3847C53.6124 71.0472 53.118 70.8784 52.4667 70.8784H51.2971V75.0075Z" fill="white"/>
<path d="M60.7294 75.4567L58.5686 70.4291H59.1106L60.9576 74.8363H60.9505L62.7975 70.4291H63.3323L61.1787 75.4567H60.7294Z" fill="white"/>
<path d="M69.2156 75.5138C68.8591 75.5138 68.5382 75.4567 68.2529 75.3426C67.9724 75.2238 67.7323 75.0526 67.5326 74.8292C67.3377 74.6057 67.188 74.3371 67.0834 74.0233C66.9788 73.7048 66.9265 73.3459 66.9265 72.9465C66.9265 72.5424 66.9764 72.1811 67.0762 71.8625C67.1808 71.544 67.3306 71.2754 67.5255 71.0567C67.7252 70.8332 67.9653 70.6645 68.2458 70.5504C68.531 70.4315 68.8543 70.3721 69.2156 70.3721C69.5722 70.3721 69.8907 70.4315 70.1712 70.5504C70.4565 70.6645 70.699 70.8332 70.8986 71.0567C71.0983 71.2754 71.2481 71.544 71.3479 71.8625C71.4525 72.1763 71.5048 72.5353 71.5048 72.9394C71.5048 73.3387 71.4525 73.6977 71.3479 74.0162C71.2433 74.3347 71.0912 74.6057 70.8915 74.8292C70.6966 75.0526 70.4565 75.2238 70.1712 75.3426C69.8907 75.4567 69.5722 75.5138 69.2156 75.5138ZM69.2156 75.0503C69.5912 75.0503 69.9098 74.9718 70.1712 74.8149C70.4327 74.6533 70.6324 74.4156 70.7703 74.1018C70.9129 73.788 70.9842 73.4005 70.9842 72.9394C70.9842 72.4782 70.9153 72.0907 70.7774 71.777C70.6395 71.4632 70.4375 71.2279 70.1712 71.071C69.9098 70.9141 69.5912 70.8356 69.2156 70.8356C68.8401 70.8356 68.5215 70.9141 68.26 71.071C67.9986 71.2279 67.7965 71.4632 67.6539 71.777C67.516 72.0907 67.4471 72.4782 67.4471 72.9394C67.4471 73.3958 67.516 73.7833 67.6539 74.1018C67.7965 74.4156 67.9986 74.6533 68.26 74.8149C68.5215 74.9718 68.8401 75.0503 69.2156 75.0503Z" fill="white"/>
<path d="M78.0276 75.5209C77.5569 75.5209 77.1504 75.4187 76.8081 75.2143C76.4658 75.0051 76.202 74.7079 76.0166 74.3229C75.8311 73.933 75.7384 73.4718 75.7384 72.9394C75.7384 72.4069 75.8288 71.9481 76.0094 71.563C76.1948 71.1779 76.4587 70.8832 76.801 70.6787C77.1433 70.4743 77.5522 70.3721 78.0276 70.3721C78.3794 70.3721 78.6979 70.4268 78.9832 70.5361C79.2732 70.6455 79.5252 70.8071 79.7391 71.021L79.5252 71.4133C79.3017 71.2088 79.0712 71.0615 78.8334 70.9711C78.5957 70.8808 78.3295 70.8356 78.0347 70.8356C77.4785 70.8356 77.0435 71.0139 76.7297 71.3705C76.4159 71.727 76.259 72.25 76.259 72.9394C76.259 73.624 76.4159 74.1469 76.7297 74.5083C77.0435 74.8696 77.4785 75.0503 78.0347 75.0503C78.3295 75.0503 78.5957 75.0051 78.8334 74.9148C79.0712 74.8244 79.3017 74.677 79.5252 74.4726L79.7391 74.8648C79.5252 75.0788 79.2732 75.2428 78.9832 75.3569C78.6979 75.4663 78.3794 75.5209 78.0276 75.5209Z" fill="white"/>
<path d="M83.4575 75.4567L85.6397 70.4291H86.1032L88.2854 75.4567H87.7577L87.1444 74.0162L87.4154 74.166H84.3346L84.5985 74.0162L83.9852 75.4567H83.4575ZM85.8536 71.0424L84.6698 73.8237L84.4986 73.7167H87.2513L87.0659 73.8237L85.8821 71.0424H85.8536Z" fill="white"/>
<path d="M94.4537 75.5209C93.983 75.5209 93.5765 75.4187 93.2342 75.2143C92.8919 75.0051 92.628 74.7079 92.4426 74.3229C92.2572 73.933 92.1645 73.4718 92.1645 72.9394C92.1645 72.4069 92.2548 71.9481 92.4355 71.563C92.6209 71.1779 92.8848 70.8832 93.2271 70.6787C93.5694 70.4743 93.9783 70.3721 94.4537 70.3721C94.8055 70.3721 95.124 70.4268 95.4093 70.5361C95.6993 70.6455 95.9513 70.8071 96.1652 71.021L95.9513 71.4133C95.7278 71.2088 95.4972 71.0615 95.2595 70.9711C95.0218 70.8808 94.7556 70.8356 94.4608 70.8356C93.9046 70.8356 93.4695 71.0139 93.1558 71.3705C92.842 71.727 92.6851 72.25 92.6851 72.9394C92.6851 73.624 92.842 74.1469 93.1558 74.5083C93.4695 74.8696 93.9046 75.0503 94.4608 75.0503C94.7556 75.0503 95.0218 75.0051 95.2595 74.9148C95.4972 74.8244 95.7278 74.677 95.9513 74.4726L96.1652 74.8648C95.9513 75.0788 95.6993 75.2428 95.4093 75.3569C95.124 75.4663 94.8055 75.5209 94.4537 75.5209Z" fill="white"/>
<path d="M100.508 75.4567V70.4291H101.007V75.4567H100.508Z" fill="white"/>
<path d="M105.186 75.4567L107.368 70.4291H107.831L110.013 75.4567H109.486L108.872 74.0162L109.143 74.166H106.063L106.327 74.0162L105.713 75.4567H105.186ZM107.582 71.0424L106.398 73.8237L106.227 73.7167H108.979L108.794 73.8237L107.61 71.0424H107.582Z" fill="white"/>
<path d="M119.227 75.4567V70.4291H121.224C121.581 70.4291 121.885 70.4886 122.137 70.6074C122.389 70.7263 122.579 70.8974 122.708 71.1209C122.841 71.3396 122.907 71.6058 122.907 71.9196C122.907 72.2286 122.841 72.4972 122.708 72.7254C122.574 72.9489 122.382 73.12 122.13 73.2389C121.883 73.3577 121.581 73.4172 121.224 73.4172H119.727V75.4567H119.227ZM119.727 72.975H121.16C121.569 72.975 121.878 72.8871 122.087 72.7112C122.296 72.5353 122.401 72.2714 122.401 71.9196C122.401 71.563 122.296 71.3015 122.087 71.1351C121.878 70.964 121.569 70.8784 121.16 70.8784H119.727V72.975Z" fill="white"/>
<path d="M127.218 75.4567V70.4291H129.229C129.756 70.4291 130.165 70.5504 130.455 70.7928C130.745 71.0305 130.89 71.3824 130.89 71.8483C130.89 72.1098 130.84 72.338 130.741 72.5329C130.641 72.7231 130.498 72.8776 130.313 72.9964C130.132 73.1105 129.916 73.1866 129.664 73.2246L129.678 73.2389L129.728 73.246C129.832 73.2745 129.925 73.3268 130.006 73.4029C130.092 73.479 130.177 73.5978 130.263 73.7595L131.161 75.4567H130.612L129.771 73.8664C129.695 73.7191 129.611 73.6073 129.521 73.5313C129.435 73.4505 129.331 73.3958 129.207 73.3673C129.088 73.334 128.943 73.3173 128.772 73.3173H127.717V75.4567H127.218ZM127.717 72.8823H129.214C129.623 72.8823 129.92 72.7991 130.106 72.6327C130.291 72.4616 130.384 72.2025 130.384 71.8554C130.384 71.5083 130.286 71.2587 130.092 71.1066C129.897 70.9545 129.592 70.8784 129.179 70.8784H127.717V72.8823Z" fill="white"/>
<path d="M135.424 75.4567V70.4291H138.64V70.8784H135.923V72.6826H138.497V73.1391H135.923V75.0075H138.64V75.4567H135.424Z" fill="white"/>
<path d="M144.436 75.4567L142.275 70.4291H142.817L144.664 74.8363H144.657L146.504 70.4291H147.039L144.885 75.4567H144.436Z" fill="white"/>
<path d="M150.958 75.4567V70.4291H151.458V75.4567H150.958Z" fill="white"/>
<path d="M156.128 75.4567V70.4291H157.818C158.351 70.4291 158.802 70.5266 159.173 70.7215C159.544 70.9164 159.824 71.2017 160.015 71.5773C160.21 71.9481 160.307 72.4021 160.307 72.9394C160.307 73.4766 160.21 73.933 160.015 74.3086C159.82 74.6842 159.537 74.9694 159.166 75.1644C158.8 75.3593 158.351 75.4567 157.818 75.4567H156.128ZM156.627 75.0075H157.797C158.448 75.0075 158.943 74.8387 159.28 74.5011C159.618 74.1636 159.786 73.643 159.786 72.9394C159.786 72.2357 159.618 71.7175 159.28 71.3847C158.943 71.0472 158.448 70.8784 157.797 70.8784H156.627V75.0075Z" fill="white"/>
<path d="M164.759 75.4567V70.4291H167.975V70.8784H165.258V72.6826H167.833V73.1391H165.258V75.0075H167.975V75.4567H164.759Z" fill="white"/>
<path d="M172.415 75.4567V70.4291H172.885L176.116 74.7079H176.109V70.4291H176.587V75.4567H176.116L172.893 71.1922H172.9V75.4567H172.415Z" fill="white"/>
<path d="M183.33 75.5209C182.859 75.5209 182.453 75.4187 182.11 75.2143C181.768 75.0051 181.504 74.7079 181.319 74.3229C181.133 73.933 181.041 73.4718 181.041 72.9394C181.041 72.4069 181.131 71.9481 181.312 71.563C181.497 71.1779 181.761 70.8832 182.103 70.6787C182.446 70.4743 182.854 70.3721 183.33 70.3721C183.682 70.3721 184 70.4268 184.285 70.5361C184.575 70.6455 184.827 70.8071 185.041 71.021L184.827 71.4133C184.604 71.2088 184.373 71.0615 184.136 70.9711C183.898 70.8808 183.632 70.8356 183.337 70.8356C182.781 70.8356 182.346 71.0139 182.032 71.3705C181.718 71.727 181.561 72.25 181.561 72.9394C181.561 73.624 181.718 74.1469 182.032 74.5083C182.346 74.8696 182.781 75.0503 183.337 75.0503C183.632 75.0503 183.898 75.0051 184.136 74.9148C184.373 74.8244 184.604 74.677 184.827 74.4726L185.041 74.8648C184.827 75.0788 184.575 75.2428 184.285 75.3569C184 75.4663 183.682 75.5209 183.33 75.5209Z" fill="white"/>
<path d="M189.384 75.4567V70.4291H189.883V75.4567H189.384Z" fill="white"/>
<path d="M194.062 75.4567L196.244 70.4291H196.707L198.89 75.4567H198.362L197.749 74.0162L198.02 74.166H194.939L195.203 74.0162L194.589 75.4567H194.062ZM196.458 71.0424L195.274 73.8237L195.103 73.7167H197.856L197.67 73.8237L196.486 71.0424H196.458ZM196.265 70.0013L197.107 68.7818H197.741L196.7 70.0013H196.265Z" fill="white"/>
<path d="M203.059 75.4567V70.4291H205.07C205.598 70.4291 206.007 70.5504 206.297 70.7928C206.587 71.0305 206.732 71.3824 206.732 71.8483C206.732 72.1098 206.682 72.338 206.582 72.5329C206.482 72.7231 206.34 72.8776 206.154 72.9964C205.974 73.1105 205.757 73.1866 205.505 73.2246L205.52 73.2389L205.57 73.246C205.674 73.2745 205.767 73.3268 205.848 73.4029C205.933 73.479 206.019 73.5978 206.104 73.7595L207.003 75.4567H206.454L205.612 73.8664C205.536 73.7191 205.453 73.6073 205.363 73.5313C205.277 73.4505 205.173 73.3958 205.049 73.3673C204.93 73.334 204.785 73.3173 204.614 73.3173H203.558V75.4567H203.059ZM203.558 72.8823H205.056C205.465 72.8823 205.762 72.7991 205.947 72.6327C206.133 72.4616 206.226 72.2025 206.226 71.8554C206.226 71.5083 206.128 71.2587 205.933 71.1066C205.738 70.9545 205.434 70.8784 205.02 70.8784H203.558V72.8823Z" fill="white"/>
<path d="M211.265 75.4567V70.4291H211.765V75.4567H211.265Z" fill="white"/>
<path d="M215.943 75.4567L218.125 70.4291H218.589L220.771 75.4567H220.243L219.63 74.0162L219.901 74.166H216.82L217.084 74.0162L216.471 75.4567H215.943ZM218.339 71.0424L217.155 73.8237L216.984 73.7167H219.737L219.551 73.8237L218.368 71.0424H218.339Z" fill="white"/>
<path d="M9.05051 27.1344V20.428H31.9052V27.1344H9.05051ZM26.0812 0.705934L41.3471 33.7967H32.4788L19.3748 4.19149H21.9338L8.87403 33.7967H0.0057135L15.2716 0.705934H26.0812Z" fill="url(#paint0_linear_0_8)"/>
<path d="M101.668 0.705934V33.7967H93.7266V3.61792L95.6679 3.75028L82.211 33.7967H73.6957L60.2388 3.83853L62.1801 3.66204V33.7967H54.2383V0.705934H67.0775L79.652 29.6493H76.2988L88.8292 0.705934H101.668Z" fill="url(#paint1_linear_0_8)"/>
<path d="M114.053 27.1344V20.428H136.908V27.1344H114.053ZM131.084 0.705934L146.35 33.7967H137.482L124.378 4.19149H126.937L113.877 33.7967H105.008L120.274 0.705934H131.084Z" fill="url(#paint2_linear_0_8)"/>
<path d="M149.719 0.705934H158.058V33.7967H149.719V0.705934Z" fill="url(#paint3_linear_0_8)"/>
<path d="M182.455 34.5026C178.572 34.5026 175.16 33.782 172.219 32.3407C169.307 30.8994 167.042 28.8845 165.424 26.2961C163.806 23.7077 162.998 20.6927 162.998 17.2513C162.998 13.8099 163.806 10.7949 165.424 8.2065C167.042 5.61807 169.307 3.60321 172.219 2.16193C175.16 0.720643 178.572 0 182.455 0C186.338 0 189.735 0.720643 192.647 2.16193C195.588 3.60321 197.868 5.61807 199.486 8.2065C201.133 10.7949 201.956 13.8099 201.956 17.2513C201.956 20.6927 201.133 23.7077 199.486 26.2961C197.868 28.8845 195.588 30.8994 192.647 32.3407C189.735 33.782 186.338 34.5026 182.455 34.5026ZM182.455 27.0462C184.749 27.0462 186.72 26.6638 188.367 25.899C190.014 25.1048 191.279 23.9724 192.162 22.5017C193.073 21.031 193.529 19.2809 193.529 17.2513C193.529 15.2217 193.073 13.4716 192.162 12.0009C191.279 10.5302 190.014 9.41248 188.367 8.64771C186.72 7.85353 184.749 7.45645 182.455 7.45645C180.19 7.45645 178.234 7.85353 176.587 8.64771C174.94 9.41248 173.66 10.5302 172.748 12.0009C171.836 13.4716 171.381 15.2217 171.381 17.2513C171.381 19.2809 171.836 21.031 172.748 22.5017C173.66 23.9724 174.94 25.1048 176.587 25.899C178.234 26.6638 180.19 27.0462 182.455 27.0462Z" fill="url(#paint4_linear_0_8)"/>
<path d="M212.675 15.2659H225.073C226.632 15.2659 227.867 14.9129 228.779 14.207C229.691 13.4716 230.147 12.4568 230.147 11.1626C230.147 9.86839 229.691 8.86832 228.779 8.16238C227.867 7.42703 226.632 7.05936 225.073 7.05936H211.484L215.234 2.9561V33.7967H206.895V0.705934H226.176C228.647 0.705934 230.809 1.14714 232.662 2.02957C234.515 2.91198 235.956 4.13266 236.986 5.69161C238.015 7.25055 238.53 9.07421 238.53 11.1626C238.53 13.2216 238.015 15.0305 236.986 16.5895C235.956 18.1484 234.515 19.3691 232.662 20.2515C230.809 21.1045 228.647 21.531 226.176 21.531H212.675V15.2659ZM218.014 18.3102H227.411L239.589 33.7967H229.926L218.014 18.3102Z" fill="url(#paint5_linear_0_8)"/>
<path d="M8.80864 57.7527C7.0509 57.7527 5.50623 57.4265 4.17461 56.774C2.85632 56.1215 1.83097 55.2093 1.09858 54.0375C0.366194 52.8657 0 51.5008 0 49.9428C0 48.3848 0.366194 47.0199 1.09858 45.8481C1.83097 44.6762 2.85632 43.7641 4.17461 43.1116C5.50623 42.4591 7.0509 42.1329 8.80864 42.1329C10.5664 42.1329 12.1044 42.4591 13.4227 43.1116C14.7543 43.7641 15.7863 44.6762 16.5187 45.8481C17.2644 47.0199 17.6372 48.3848 17.6372 49.9428C17.6372 51.5008 17.2644 52.8657 16.5187 54.0375C15.7863 55.2093 14.7543 56.1215 13.4227 56.774C12.1044 57.4265 10.5664 57.7527 8.80864 57.7527ZM8.80864 54.3771C9.8473 54.3771 10.7395 54.2039 11.4852 53.8577C12.2309 53.4982 12.8035 52.9855 13.203 52.3197C13.6158 51.6539 13.8222 50.8616 13.8222 49.9428C13.8222 49.024 13.6158 48.2317 13.203 47.5658C12.8035 46.9 12.2309 46.394 11.4852 46.0478C10.7395 45.6883 9.8473 45.5085 8.80864 45.5085C7.78329 45.5085 6.89777 45.6883 6.15206 46.0478C5.40636 46.394 4.82711 46.9 4.41431 47.5658C4.0015 48.2317 3.7951 49.024 3.7951 49.9428C3.7951 50.8616 4.0015 51.6539 4.41431 52.3197C4.82711 52.9855 5.40636 53.4982 6.15206 53.8577C6.89777 54.2039 7.78329 54.3771 8.80864 54.3771Z" fill="url(#paint6_linear_0_8)"/>
<path d="M33.7552 54.8564L32.5368 55.0762V42.4524H36.1921V57.4331H31.4382L22.31 44.8094L23.5284 44.5897V57.4331H19.8731V42.4524H24.7668L33.7552 54.8564Z" fill="url(#paint7_linear_0_8)"/>
<path d="M46.4167 42.4524C48.1744 42.4524 49.7124 42.7654 51.0307 43.3912C52.349 44.0171 53.3744 44.8893 54.1068 46.0079C54.8525 47.1264 55.2253 48.4381 55.2253 49.9428C55.2253 51.4342 54.8525 52.7458 54.1068 53.8777C53.3744 54.9963 52.349 55.8685 51.0307 56.4943C49.7124 57.1202 48.1744 57.4331 46.4167 57.4331H39.1061V42.4524H46.4167ZM42.8613 55.8951L41.0236 54.0974H46.6963C47.6551 54.0974 48.4873 53.9243 49.1931 53.5781C49.8989 53.2319 50.4448 52.7525 50.831 52.1399C51.2172 51.5141 51.4102 50.7817 51.4102 49.9428C51.4102 49.0905 51.2172 48.3582 50.831 47.7456C50.4448 47.1331 49.8989 46.6537 49.1931 46.3075C48.4873 45.9612 47.6551 45.7881 46.6963 45.7881H41.0236L42.8613 43.9905V55.8951Z" fill="url(#paint8_linear_0_8)"/>
<path d="M59.2216 54.417V51.3809H69.5682V54.417H59.2216ZM66.9316 42.4524L73.8427 57.4331H69.8279L63.8955 44.0304H65.054L59.1417 57.4331H55.1268L62.0379 42.4524H66.9316Z" fill="url(#paint9_linear_0_8)"/>
<path d="M86.9893 42.4524C88.7471 42.4524 90.2851 42.7654 91.6034 43.3912C92.9217 44.0171 93.947 44.8893 94.6794 46.0079C95.4251 47.1264 95.798 48.4381 95.798 49.9428C95.798 51.4342 95.4251 52.7458 94.6794 53.8777C93.947 54.9963 92.9217 55.8685 91.6034 56.4943C90.2851 57.1202 88.7471 57.4331 86.9893 57.4331H79.6788V42.4524H86.9893ZM83.4339 55.8951L81.5963 54.0974H87.269C88.2277 54.0974 89.06 53.9243 89.7657 53.5781C90.4715 53.2319 91.0175 52.7525 91.4036 52.1399C91.7898 51.5141 91.9829 50.7817 91.9829 49.9428C91.9829 49.0905 91.7898 48.3582 91.4036 47.7456C91.0175 47.1331 90.4715 46.6537 89.7657 46.3075C89.06 45.9612 88.2277 45.7881 87.269 45.7881H81.5963L83.4339 43.9905V55.8951Z" fill="url(#paint10_linear_0_8)"/>
<path d="M110.443 48.5446V51.341H99.5967V48.5446H110.443ZM102.153 49.9428L101.155 56.1348L99.5767 54.3571H111.082V57.4331H97.3795L98.538 49.9428L97.3795 42.4524H110.982V45.5285H99.5767L101.155 43.7508L102.153 49.9428Z" fill="url(#paint11_linear_0_8)"/>
<path d="M135.032 51.2411C134.886 52.5328 134.44 53.6713 133.694 54.6567C132.948 55.6288 131.963 56.3878 130.738 56.9338C129.513 57.4797 128.114 57.7527 126.543 57.7527C124.825 57.7527 123.314 57.4265 122.009 56.774C120.717 56.1215 119.712 55.2093 118.993 54.0375C118.274 52.8657 117.914 51.5008 117.914 49.9428C117.914 48.3848 118.274 47.0199 118.993 45.8481C119.712 44.6762 120.717 43.7641 122.009 43.1116C123.314 42.4591 124.825 42.1329 126.543 42.1329C128.114 42.1329 129.513 42.4058 130.738 42.9518C131.963 43.4978 132.948 44.2568 133.694 45.2289C134.44 46.2009 134.886 47.3395 135.032 48.6445H131.237C131.104 47.9653 130.831 47.3861 130.418 46.9067C130.019 46.4273 129.486 46.0611 128.82 45.8081C128.168 45.5418 127.409 45.4086 126.543 45.4086C125.544 45.4086 124.686 45.5951 123.966 45.9679C123.247 46.3274 122.695 46.8468 122.309 47.5259C121.922 48.205 121.729 49.0106 121.729 49.9428C121.729 50.8749 121.922 51.6805 122.309 52.3597C122.695 53.0388 123.247 53.5648 123.966 53.9376C124.686 54.2972 125.544 54.4769 126.543 54.4769C127.409 54.4769 128.168 54.3504 128.82 54.0974C129.486 53.8444 130.019 53.4782 130.418 52.9988C130.831 52.5195 131.104 51.9335 131.237 51.2411H135.032Z" fill="url(#paint12_linear_0_8)"/>
<path d="M140.919 42.4524V55.7553L139.221 54.0974H150.447V57.4331H137.144V42.4524H140.919Z" fill="url(#paint13_linear_0_8)"/>
<path d="M152.261 42.4524H156.036V57.4331H152.261V42.4524Z" fill="url(#paint14_linear_0_8)"/>
<path d="M171.555 48.5446V51.341H160.709V48.5446H171.555ZM163.266 49.9428L162.267 56.1348L160.689 54.3571H172.194V57.4331H158.492L159.651 49.9428L158.492 42.4524H172.095V45.5285H160.689L162.267 43.7508L163.266 49.9428Z" fill="url(#paint15_linear_0_8)"/>
<path d="M188.555 54.8564L187.337 55.0762V42.4524H190.992V57.4331H186.238L177.11 44.8094L178.329 44.5897V57.4331H174.673V42.4524H179.567L188.555 54.8564Z" fill="url(#paint16_linear_0_8)"/>
<path d="M198.64 44.1103H202.415V57.4331H198.64V44.1103ZM192.808 42.4524H208.248V45.7881H192.808V42.4524Z" fill="url(#paint17_linear_0_8)"/>
<path d="M222.661 48.5446V51.341H211.815V48.5446H222.661ZM214.372 49.9428L213.373 56.1348L211.795 54.3571H223.3V57.4331H209.598L210.757 49.9428L209.598 42.4524H223.2V45.5285H211.795L213.373 43.7508L214.372 49.9428Z" fill="url(#paint18_linear_0_8)"/>
<path d="M225.06 52.5394H228.875C228.942 52.9922 229.148 53.3917 229.495 53.7379C229.841 54.0841 230.3 54.3504 230.873 54.5369C231.459 54.7233 232.138 54.8165 232.91 54.8165C234.015 54.8165 234.881 54.6634 235.507 54.3571C236.146 54.0508 236.466 53.618 236.466 53.0588C236.466 52.6326 236.279 52.3064 235.906 52.08C235.547 51.8403 234.868 51.6672 233.869 51.5607L230.973 51.2611C228.962 51.0613 227.504 50.5953 226.598 49.8629C225.706 49.1305 225.26 48.1318 225.26 46.8667C225.26 45.868 225.553 45.0158 226.139 44.31C226.738 43.6043 227.57 43.065 228.636 42.6921C229.714 42.3193 230.973 42.1329 232.411 42.1329C233.836 42.1329 235.094 42.3393 236.186 42.7521C237.278 43.1649 238.15 43.7375 238.803 44.4698C239.455 45.2022 239.808 46.0545 239.861 47.0265H236.046C235.993 46.6271 235.806 46.2875 235.487 46.0079C235.181 45.7149 234.761 45.4885 234.228 45.3287C233.709 45.1556 233.077 45.0691 232.331 45.0691C231.332 45.0691 230.533 45.2155 229.934 45.5085C229.348 45.7881 229.055 46.1943 229.055 46.7269C229.055 47.1264 229.228 47.4393 229.574 47.6657C229.934 47.8921 230.566 48.0585 231.472 48.1651L234.528 48.5046C235.926 48.6511 237.045 48.8841 237.884 49.2037C238.723 49.5233 239.329 49.9628 239.701 50.522C240.074 51.0813 240.261 51.7871 240.261 52.6393C240.261 53.6646 239.948 54.5635 239.322 55.3358C238.709 56.0948 237.844 56.6874 236.725 57.1135C235.62 57.5396 234.328 57.7527 232.85 57.7527C231.319 57.7527 229.974 57.533 228.815 57.0936C227.67 56.6541 226.765 56.0482 226.099 55.2759C225.446 54.4902 225.1 53.5781 225.06 52.5394Z" fill="url(#paint19_linear_0_8)"/>
</g>
</g>
<defs>
<filter id="filter0_n_0_8" x="0" y="0" width="240.261" height="75.5209" filterUnits="userSpaceOnUse" color-interpolation-filters="sRGB">
<feFlood flood-opacity="0" result="BackgroundImageFix"/>
<feBlend mode="normal" in="SourceGraphic" in2="BackgroundImageFix" result="shape"/>
<feTurbulence type="fractalNoise" baseFrequency="10.758666038513184 10.758666038513184" stitchTiles="stitch" numOctaves="3" result="noise" seed="4525" />
<feColorMatrix in="noise" type="luminanceToAlpha" result="alphaNoise" />
<feComponentTransfer in="alphaNoise" result="coloredNoise1">
<feFuncA type="discrete" tableValues="1 1 1 1 1 1 1 1 1 1 1 1 1 1 1 1 1 1 1 1 1 1 1 1 1 1 1 1 1 1 1 1 1 1 1 1 1 1 1 1 1 1 1 1 1 1 1 1 1 1 1 0 0 0 0 0 0 0 0 0 0 0 0 0 0 0 0 0 0 0 0 0 0 0 0 0 0 0 0 0 0 0 0 0 0 0 0 0 0 0 0 0 0 0 0 0 0 0 0 0 "/>
</feComponentTransfer>
<feComposite operator="in" in2="shape" in="coloredNoise1" result="noise1Clipped" />
<feFlood flood-color="rgba(0, 0, 0, 0.25)" result="color1Flood" />
<feComposite operator="in" in2="noise1Clipped" in="color1Flood" result="color1" />
<feMerge result="effect1_noise_0_8">
<feMergeNode in="shape" />
<feMergeNode in="color1" />
</feMerge>
</filter>
<linearGradient id="paint0_linear_0_8" x1="-0.126709" y1="17.2967" x2="240.873" y2="17.2967" gradientUnits="userSpaceOnUse">
<stop stop-color="#8F8F8F"/>
<stop offset="0.560382" stop-color="white"/>
<stop offset="1" stop-color="#8F8F8F"/>
</linearGradient>
<linearGradient id="paint1_linear_0_8" x1="-0.126709" y1="17.2967" x2="240.873" y2="17.2967" gradientUnits="userSpaceOnUse">
<stop stop-color="#8F8F8F"/>
<stop offset="0.560382" stop-color="white"/>
<stop offset="1" stop-color="#8F8F8F"/>
</linearGradient>
<linearGradient id="paint2_linear_0_8" x1="-0.126709" y1="17.2967" x2="240.873" y2="17.2967" gradientUnits="userSpaceOnUse">
<stop stop-color="#8F8F8F"/>
<stop offset="0.560382" stop-color="white"/>
<stop offset="1" stop-color="#8F8F8F"/>
</linearGradient>
<linearGradient id="paint3_linear_0_8" x1="-0.126709" y1="17.2967" x2="240.873" y2="17.2967" gradientUnits="userSpaceOnUse">
<stop stop-color="#8F8F8F"/>
<stop offset="0.560382" stop-color="white"/>
<stop offset="1" stop-color="#8F8F8F"/>
</linearGradient>
<linearGradient id="paint4_linear_0_8" x1="-0.126709" y1="17.2967" x2="240.873" y2="17.2967" gradientUnits="userSpaceOnUse">
<stop stop-color="#8F8F8F"/>
<stop offset="0.560382" stop-color="white"/>
<stop offset="1" stop-color="#8F8F8F"/>
</linearGradient>
<linearGradient id="paint5_linear_0_8" x1="-0.126709" y1="17.2967" x2="240.873" y2="17.2967" gradientUnits="userSpaceOnUse">
<stop stop-color="#8F8F8F"/>
<stop offset="0.560382" stop-color="white"/>
<stop offset="1" stop-color="#8F8F8F"/>
</linearGradient>
<linearGradient id="paint6_linear_0_8" x1="0" y1="37.7605" x2="240.261" y2="37.7605" gradientUnits="userSpaceOnUse">
<stop stop-color="#F7B93C"/>
<stop offset="0.5112" stop-color="#FFC890"/>
<stop offset="1" stop-color="#FFE5CA"/>
</linearGradient>
<linearGradient id="paint7_linear_0_8" x1="0" y1="37.7605" x2="240.261" y2="37.7605" gradientUnits="userSpaceOnUse">
<stop stop-color="#F7B93C"/>
<stop offset="0.5112" stop-color="#FFC890"/>
<stop offset="1" stop-color="#FFE5CA"/>
</linearGradient>
<linearGradient id="paint8_linear_0_8" x1="0" y1="37.7605" x2="240.261" y2="37.7605" gradientUnits="userSpaceOnUse">
<stop stop-color="#F7B93C"/>
<stop offset="0.5112" stop-color="#FFC890"/>
<stop offset="1" stop-color="#FFE5CA"/>
</linearGradient>
<linearGradient id="paint9_linear_0_8" x1="0" y1="37.7605" x2="240.261" y2="37.7605" gradientUnits="userSpaceOnUse">
<stop stop-color="#F7B93C"/>
<stop offset="0.5112" stop-color="#FFC890"/>
<stop offset="1" stop-color="#FFE5CA"/>
</linearGradient>
<linearGradient id="paint10_linear_0_8" x1="0" y1="37.7605" x2="240.261" y2="37.7605" gradientUnits="userSpaceOnUse">
<stop stop-color="#F7B93C"/>
<stop offset="0.5112" stop-color="#FFC890"/>
<stop offset="1" stop-color="#FFE5CA"/>
</linearGradient>
<linearGradient id="paint11_linear_0_8" x1="0" y1="37.7605" x2="240.261" y2="37.7605" gradientUnits="userSpaceOnUse">
<stop stop-color="#F7B93C"/>
<stop offset="0.5112" stop-color="#FFC890"/>
<stop offset="1" stop-color="#FFE5CA"/>
</linearGradient>
<linearGradient id="paint12_linear_0_8" x1="0" y1="37.7605" x2="240.261" y2="37.7605" gradientUnits="userSpaceOnUse">
<stop stop-color="#F7B93C"/>
<stop offset="0.5112" stop-color="#FFC890"/>
<stop offset="1" stop-color="#FFE5CA"/>
</linearGradient>
<linearGradient id="paint13_linear_0_8" x1="0" y1="37.7605" x2="240.261" y2="37.7605" gradientUnits="userSpaceOnUse">
<stop stop-color="#F7B93C"/>
<stop offset="0.5112" stop-color="#FFC890"/>
<stop offset="1" stop-color="#FFE5CA"/>
</linearGradient>
<linearGradient id="paint14_linear_0_8" x1="0" y1="37.7605" x2="240.261" y2="37.7605" gradientUnits="userSpaceOnUse">
<stop stop-color="#F7B93C"/>
<stop offset="0.5112" stop-color="#FFC890"/>
<stop offset="1" stop-color="#FFE5CA"/>
</linearGradient>
<linearGradient id="paint15_linear_0_8" x1="0" y1="37.7605" x2="240.261" y2="37.7605" gradientUnits="userSpaceOnUse">
<stop stop-color="#F7B93C"/>
<stop offset="0.5112" stop-color="#FFC890"/>
<stop offset="1" stop-color="#FFE5CA"/>
</linearGradient>
<linearGradient id="paint16_linear_0_8" x1="0" y1="37.7605" x2="240.261" y2="37.7605" gradientUnits="userSpaceOnUse">
<stop stop-color="#F7B93C"/>
<stop offset="0.5112" stop-color="#FFC890"/>
<stop offset="1" stop-color="#FFE5CA"/>
</linearGradient>
<linearGradient id="paint17_linear_0_8" x1="0" y1="37.7605" x2="240.261" y2="37.7605" gradientUnits="userSpaceOnUse">
<stop stop-color="#F7B93C"/>
<stop offset="0.5112" stop-color="#FFC890"/>
<stop offset="1" stop-color="#FFE5CA"/>
</linearGradient>
<linearGradient id="paint18_linear_0_8" x1="0" y1="37.7605" x2="240.261" y2="37.7605" gradientUnits="userSpaceOnUse">
<stop stop-color="#F7B93C"/>
<stop offset="0.5112" stop-color="#FFC890"/>
<stop offset="1" stop-color="#FFE5CA"/>
</linearGradient>
<linearGradient id="paint19_linear_0_8" x1="0" y1="37.7605" x2="240.261" y2="37.7605" gradientUnits="userSpaceOnUse">
<stop stop-color="#F7B93C"/>
<stop offset="0.5112" stop-color="#FFC890"/>
<stop offset="1" stop-color="#FFE5CA"/>
</linearGradient>
</defs>
</svg>
